<mxfile host="app.diagrams.net" modified="2023-01-16T13:54:52.369Z" agent="5.0 (Windows NT 10.0; Win64; x64) AppleWebKit/537.36 (KHTML, like Gecko) Chrome/108.0.0.0 Safari/537.36" etag="NUJaiPLIQ9JRgbfH98lr" version="20.7.3" type="github">
  <diagram id="HodC3mXmSrQf_ePklxQP" name="PÃ¡gina-1">
    <mxGraphModel dx="1034" dy="427" grid="1" gridSize="10" guides="1" tooltips="1" connect="1" arrows="1" fold="1" page="1" pageScale="1" pageWidth="1169" pageHeight="827" math="0" shadow="0">
      <root>
        <mxCell id="0" />
        <mxCell id="1" parent="0" />
        <mxCell id="pt-MB-f53F1tmJNGdL1m-29" value="" style="verticalLabelPosition=bottom;verticalAlign=top;html=1;shape=mxgraph.basic.patternFillRect;fillStyle=diagRev;step=5;fillStrokeWidth=0.2;fillStrokeColor=#dddddd;fillColor=#CCFFFF;" parent="1" vertex="1">
          <mxGeometry x="815.4" y="200" width="150" height="250" as="geometry" />
        </mxCell>
        <mxCell id="pt-MB-f53F1tmJNGdL1m-32" value="" style="edgeStyle=orthogonalEdgeStyle;rounded=0;orthogonalLoop=1;jettySize=auto;html=1;" parent="1" source="pt-MB-f53F1tmJNGdL1m-2" target="pt-MB-f53F1tmJNGdL1m-18" edge="1">
          <mxGeometry relative="1" as="geometry" />
        </mxCell>
        <mxCell id="pt-MB-f53F1tmJNGdL1m-2" value="" style="sketch=0;pointerEvents=1;shadow=0;dashed=0;html=1;strokeColor=none;fillColor=#505050;labelPosition=center;verticalLabelPosition=bottom;verticalAlign=top;outlineConnect=0;align=center;shape=mxgraph.office.sites.website;" parent="1" vertex="1">
          <mxGeometry x="80" y="80" width="107.16" height="89" as="geometry" />
        </mxCell>
        <mxCell id="pt-MB-f53F1tmJNGdL1m-3" value="" style="sketch=0;pointerEvents=1;shadow=0;dashed=0;html=1;strokeColor=none;fillColor=#505050;labelPosition=center;verticalLabelPosition=bottom;verticalAlign=top;outlineConnect=0;align=center;shape=mxgraph.office.services.verification_service;" parent="1" vertex="1">
          <mxGeometry x="840" y="75" width="77.29" height="80" as="geometry" />
        </mxCell>
        <mxCell id="pt-MB-f53F1tmJNGdL1m-4" value="SCA - Sistema Controle de Acesso" style="text;html=1;align=center;verticalAlign=middle;resizable=0;points=[];autosize=1;strokeColor=none;fillColor=none;" parent="1" vertex="1">
          <mxGeometry x="760" y="30" width="210" height="30" as="geometry" />
        </mxCell>
        <mxCell id="pt-MB-f53F1tmJNGdL1m-5" value="AnyDoc" style="text;html=1;align=center;verticalAlign=middle;resizable=0;points=[];autosize=1;strokeColor=none;fillColor=none;" parent="1" vertex="1">
          <mxGeometry x="92" y="45" width="70" height="30" as="geometry" />
        </mxCell>
        <mxCell id="pt-MB-f53F1tmJNGdL1m-8" value="" style="sketch=0;pointerEvents=1;shadow=0;dashed=0;html=1;strokeColor=none;fillColor=#505050;labelPosition=center;verticalLabelPosition=bottom;verticalAlign=top;outlineConnect=0;align=center;shape=mxgraph.office.services.verification_service;" parent="1" vertex="1">
          <mxGeometry x="851.75" y="280" width="77.29" height="80" as="geometry" />
        </mxCell>
        <mxCell id="pt-MB-f53F1tmJNGdL1m-9" value="Auth.Services" style="text;html=1;align=center;verticalAlign=middle;resizable=0;points=[];autosize=1;strokeColor=none;fillColor=none;" parent="1" vertex="1">
          <mxGeometry x="836.75" y="250" width="100" height="30" as="geometry" />
        </mxCell>
        <mxCell id="pt-MB-f53F1tmJNGdL1m-38" style="edgeStyle=orthogonalEdgeStyle;rounded=0;orthogonalLoop=1;jettySize=auto;html=1;entryX=0.235;entryY=0.459;entryDx=0;entryDy=0;entryPerimeter=0;" parent="1" source="pt-MB-f53F1tmJNGdL1m-10" target="pt-MB-f53F1tmJNGdL1m-29" edge="1">
          <mxGeometry relative="1" as="geometry" />
        </mxCell>
        <mxCell id="pt-MB-f53F1tmJNGdL1m-10" value="" style="outlineConnect=0;dashed=0;verticalLabelPosition=bottom;verticalAlign=top;align=center;html=1;shape=mxgraph.aws3.api_gateway;fillColor=#D9A741;gradientColor=none;" parent="1" vertex="1">
          <mxGeometry x="684.36" y="278" width="61.28" height="74.5" as="geometry" />
        </mxCell>
        <mxCell id="pt-MB-f53F1tmJNGdL1m-11" value="Api Manager" style="text;html=1;align=center;verticalAlign=middle;resizable=0;points=[];autosize=1;strokeColor=none;fillColor=none;" parent="1" vertex="1">
          <mxGeometry x="670" y="250" width="90" height="30" as="geometry" />
        </mxCell>
        <mxCell id="pt-MB-f53F1tmJNGdL1m-15" value="" style="group" parent="1" vertex="1" connectable="0">
          <mxGeometry x="521" y="227" width="62" height="134" as="geometry" />
        </mxCell>
        <mxCell id="pt-MB-f53F1tmJNGdL1m-12" value="" style="outlineConnect=0;dashed=0;verticalLabelPosition=bottom;verticalAlign=top;align=center;html=1;shape=mxgraph.aws3.saml_token;fillColor=#D2D3D3;gradientColor=none;" parent="pt-MB-f53F1tmJNGdL1m-15" vertex="1">
          <mxGeometry y="4.719999999999999" width="49.24" height="49.73" as="geometry" />
        </mxCell>
        <mxCell id="pt-MB-f53F1tmJNGdL1m-13" value="Token" style="text;html=1;align=center;verticalAlign=middle;resizable=0;points=[];autosize=1;strokeColor=none;fillColor=none;" parent="pt-MB-f53F1tmJNGdL1m-15" vertex="1">
          <mxGeometry x="16.41176470588235" y="-16" width="60" height="30" as="geometry" />
        </mxCell>
        <mxCell id="pt-MB-f53F1tmJNGdL1m-14" value="Request" style="sketch=0;pointerEvents=1;shadow=0;dashed=0;html=1;strokeColor=none;fillColor=#505050;labelPosition=center;verticalLabelPosition=bottom;outlineConnect=0;verticalAlign=top;align=center;shape=mxgraph.office.clouds.cloud_service_request;" parent="pt-MB-f53F1tmJNGdL1m-15" vertex="1">
          <mxGeometry x="-10" y="80" width="72" height="54" as="geometry" />
        </mxCell>
        <mxCell id="pt-MB-f53F1tmJNGdL1m-35" value="" style="edgeStyle=orthogonalEdgeStyle;rounded=0;orthogonalLoop=1;jettySize=auto;html=1;" parent="1" target="pt-MB-f53F1tmJNGdL1m-19" edge="1">
          <mxGeometry relative="1" as="geometry">
            <mxPoint x="180" y="297" as="sourcePoint" />
            <Array as="points">
              <mxPoint x="200" y="297" />
              <mxPoint x="200" y="297" />
            </Array>
          </mxGeometry>
        </mxCell>
        <mxCell id="pt-MB-f53F1tmJNGdL1m-16" value="" style="sketch=0;pointerEvents=1;shadow=0;dashed=0;html=1;strokeColor=none;fillColor=#505050;labelPosition=center;verticalLabelPosition=bottom;verticalAlign=top;outlineConnect=0;align=center;shape=mxgraph.office.sites.website;" parent="1" vertex="1">
          <mxGeometry x="80" y="265" width="107.16" height="89" as="geometry" />
        </mxCell>
        <mxCell id="pt-MB-f53F1tmJNGdL1m-17" value="AnyDoc" style="text;html=1;align=center;verticalAlign=middle;resizable=0;points=[];autosize=1;strokeColor=none;fillColor=none;" parent="1" vertex="1">
          <mxGeometry x="92" y="230" width="70" height="30" as="geometry" />
        </mxCell>
        <mxCell id="pt-MB-f53F1tmJNGdL1m-34" value="" style="edgeStyle=orthogonalEdgeStyle;rounded=0;orthogonalLoop=1;jettySize=auto;html=1;" parent="1" source="pt-MB-f53F1tmJNGdL1m-18" edge="1">
          <mxGeometry relative="1" as="geometry">
            <mxPoint x="840" y="125" as="targetPoint" />
          </mxGeometry>
        </mxCell>
        <mxCell id="pt-MB-f53F1tmJNGdL1m-18" value="" style="shape=image;html=1;verticalAlign=top;verticalLabelPosition=bottom;labelBackgroundColor=#ffffff;imageAspect=0;aspect=fixed;image=https://cdn1.iconfinder.com/data/icons/Futurosoft%20Icons%200.5.2/128x128/apps/filetypes.png" parent="1" vertex="1">
          <mxGeometry x="220" y="100.5" width="48" height="48" as="geometry" />
        </mxCell>
        <mxCell id="pt-MB-f53F1tmJNGdL1m-36" value="" style="edgeStyle=orthogonalEdgeStyle;rounded=0;orthogonalLoop=1;jettySize=auto;html=1;" parent="1" source="pt-MB-f53F1tmJNGdL1m-19" edge="1">
          <mxGeometry relative="1" as="geometry">
            <mxPoint x="680" y="297" as="targetPoint" />
          </mxGeometry>
        </mxCell>
        <mxCell id="pt-MB-f53F1tmJNGdL1m-19" value="" style="shape=image;html=1;verticalAlign=top;verticalLabelPosition=bottom;labelBackgroundColor=#ffffff;imageAspect=0;aspect=fixed;image=https://cdn1.iconfinder.com/data/icons/Futurosoft%20Icons%200.5.2/128x128/apps/filetypes.png" parent="1" vertex="1">
          <mxGeometry x="220" y="273" width="48" height="48" as="geometry" />
        </mxCell>
        <mxCell id="pt-MB-f53F1tmJNGdL1m-20" value="Singleton, para controlar o uso de apenas uma instancia enquanto o token estiver valido." style="rounded=0;whiteSpace=wrap;html=1;" parent="1" vertex="1">
          <mxGeometry x="290" y="190" width="160" height="100" as="geometry" />
        </mxCell>
        <mxCell id="pt-MB-f53F1tmJNGdL1m-21" value="Facade, para encapsular e manter os metodos de requisitar token e metodo a partir de um unico metodo." style="rounded=0;whiteSpace=wrap;html=1;" parent="1" vertex="1">
          <mxGeometry x="290" y="300" width="160" height="80" as="geometry" />
        </mxCell>
        <mxCell id="pt-MB-f53F1tmJNGdL1m-22" value="Adapter, para criar os mesmos metodos ja existentes na DLL anterior mas com o novo mecanismo." style="rounded=0;whiteSpace=wrap;html=1;" parent="1" vertex="1">
          <mxGeometry x="290" y="390" width="160" height="80" as="geometry" />
        </mxCell>
        <mxCell id="pt-MB-f53F1tmJNGdL1m-23" value="Active Directory" style="aspect=fixed;html=1;points=[];align=center;image;fontSize=12;image=img/lib/azure2/identity/Azure_Active_Directory.svg;" parent="1" vertex="1">
          <mxGeometry x="1000" y="220" width="65.63" height="60" as="geometry" />
        </mxCell>
        <mxCell id="pt-MB-f53F1tmJNGdL1m-25" value="SQL" style="image;html=1;image=img/lib/clip_art/computers/Database_128x128.png" parent="1" vertex="1">
          <mxGeometry x="910" y="370" width="50" height="50" as="geometry" />
        </mxCell>
        <mxCell id="pt-MB-f53F1tmJNGdL1m-30" value="&lt;b&gt;Azure&lt;/b&gt;" style="text;html=1;align=center;verticalAlign=middle;resizable=0;points=[];autosize=1;strokeColor=none;fillColor=none;" parent="1" vertex="1">
          <mxGeometry x="860.4" y="170" width="60" height="30" as="geometry" />
        </mxCell>
      </root>
    </mxGraphModel>
  </diagram>
</mxfile>
